<svg xmlns="http://www.w3.org/2000/svg" width="1200" height="720" viewBox="0 0 1200 720">
  <defs>
    <style>
      .title { font: 700 28px Arial, sans-serif; fill: #0b1f2a; }
      .label { font: 600 16px Arial, sans-serif; fill: #0b1f2a; }
      .small { font: 400 13px Arial, sans-serif; fill: #234; }
      .box { fill: #f7fbff; stroke: #1b4b6f; stroke-width: 2; rx: 10; }
      .gateway { fill: #e9f7f4; stroke: #2c6e6b; stroke-width: 2; rx: 10; }
      .db { fill: #fff6e6; stroke: #8b5a00; stroke-width: 2; rx: 10; }
      .obs { fill: #f2fff7; stroke: #2f7d4a; stroke-width: 2; rx: 10; }
      .arrow { stroke: #1b4b6f; stroke-width: 2.5; fill: none; marker-end: url(#arrowhead); }
      .dashed { stroke-dasharray: 6 6; }
    </style>
    <marker id="arrowhead" markerWidth="10" markerHeight="7" refX="10" refY="3.5" orient="auto">
      <polygon points="0 0, 10 3.5, 0 7" fill="#1b4b6f" />
    </marker>
  </defs>

  <text x="40" y="50" class="title">Enterprise Microservice System – HLD</text>

  <!-- Portal -->
  <rect x="60" y="120" width="220" height="80" class="box" />
  <text x="95" y="158" class="label">Vue Web Portal</text>
  <text x="95" y="182" class="small">Frontend UI</text>

  <!-- Gateway -->
  <rect x="340" y="110" width="220" height="100" class="gateway" />
  <text x="380" y="155" class="label">Nginx Gateway</text>
  <text x="360" y="180" class="small">Routing + SPA hosting</text>

  <!-- User Service -->
  <rect x="640" y="60" width="260" height="90" class="box" />
  <text x="700" y="105" class="label">User Service</text>
  <text x="690" y="130" class="small">JWT issuance, User CRUD</text>

  <!-- Order Service -->
  <rect x="640" y="200" width="260" height="90" class="box" />
  <text x="695" y="245" class="label">Order Service</text>
  <text x="675" y="270" class="small">Order CRUD, User validation</text>

  <!-- Repository Service -->
  <rect x="640" y="340" width="260" height="90" class="box" />
  <text x="680" y="385" class="label">Repository Service</text>
  <text x="675" y="410" class="small">Repository CRUD, access control</text>

  <!-- Databases -->
  <rect x="940" y="60" width="200" height="80" class="db" />
  <text x="980" y="105" class="label">User DB</text>

  <rect x="940" y="200" width="200" height="80" class="db" />
  <text x="980" y="245" class="label">Order DB</text>

  <rect x="940" y="340" width="200" height="80" class="db" />
  <text x="965" y="385" class="label">Repository DB</text>

  <!-- Observability -->
  <rect x="640" y="500" width="260" height="80" class="obs" />
  <text x="680" y="545" class="label">Metrics / Logs</text>
  <text x="675" y="568" class="small">Prometheus + structured logs</text>

  <!-- Auth -->
  <rect x="60" y="240" width="220" height="70" class="box" />
  <text x="85" y="282" class="label">JWT Auth</text>

  <!-- Arrows -->
  <line x1="280" y1="160" x2="340" y2="160" class="arrow" />
  <line x1="560" y1="140" x2="640" y2="105" class="arrow" />
  <line x1="560" y1="180" x2="640" y2="245" class="arrow" />
  <line x1="560" y1="210" x2="640" y2="385" class="arrow" />

  <line x1="900" y1="105" x2="940" y2="100" class="arrow" />
  <line x1="900" y1="245" x2="940" y2="240" class="arrow" />
  <line x1="900" y1="385" x2="940" y2="380" class="arrow" />

  <!-- Order -> User (service-to-service) -->
  <line x1="640" y1="245" x2="640" y2="105" class="arrow dashed" />
  <text x="650" y="190" class="small">Service call</text>

  <!-- Auth link -->
  <line x1="170" y1="240" x2="170" y2="200" class="arrow dashed" />
  <text x="195" y="220" class="small">Bearer token</text>

  <!-- Observability links -->
  <line x1="720" y1="150" x2="720" y2="500" class="arrow" />
  <line x1="770" y1="290" x2="770" y2="500" class="arrow" />
  <line x1="820" y1="430" x2="820" y2="500" class="arrow" />

  <!-- Legend -->
  <rect x="60" y="520" width="820" height="120" fill="#ffffff" stroke="#d2dbe3" />
  <text x="80" y="555" class="label">Legend</text>
  <text x="80" y="580" class="small">Solid arrows: primary request/response flow</text>
  <text x="80" y="605" class="small">Dashed arrows: internal service-to-service calls or auth flow</text>
</svg>
